<mxfile host="65bd71144e">
    <diagram id="GBUXYo0_L3jHoYtPMKWr" name="第 1 页">
        <mxGraphModel dx="1230" dy="985" grid="0" gridSize="10" guides="1" tooltips="1" connect="1" arrows="1" fold="1" page="0" pageScale="1" pageWidth="827" pageHeight="1169" math="0" shadow="0">
            <root>
                <mxCell id="0"/>
                <mxCell id="1" parent="0"/>
                <mxCell id="2" value="" style="rounded=0;whiteSpace=wrap;html=1;sketch=1;fillColor=#f5f5f5;fontColor=#333333;strokeColor=#666666;shadow=0;" parent="1" vertex="1">
                    <mxGeometry x="215" y="17" width="417" height="502" as="geometry"/>
                </mxCell>
                <mxCell id="3" value="某一页 16kb" style="text;html=1;strokeColor=none;fillColor=none;align=center;verticalAlign=middle;whiteSpace=wrap;rounded=0;sketch=1;fontFamily=Times New Roman;" parent="1" vertex="1">
                    <mxGeometry x="364.5" y="13" width="118" height="30" as="geometry"/>
                </mxCell>
                <mxCell id="4" value="页头" style="rounded=0;whiteSpace=wrap;html=1;sketch=1;fontFamily=Times New Roman;" parent="1" vertex="1">
                    <mxGeometry x="252" y="58" width="353" height="63" as="geometry"/>
                </mxCell>
                <mxCell id="5" value="prev 指针" style="rounded=0;whiteSpace=wrap;html=1;sketch=1;fontFamily=Times New Roman;fillColor=#d5e8d4;strokeColor=#82b366;" parent="1" vertex="1">
                    <mxGeometry x="261" y="72" width="72" height="35" as="geometry"/>
                </mxCell>
                <mxCell id="6" value="next 指针" style="rounded=0;whiteSpace=wrap;html=1;sketch=1;fontFamily=Times New Roman;fillColor=#d5e8d4;strokeColor=#82b366;" parent="1" vertex="1">
                    <mxGeometry x="522" y="72" width="72" height="35" as="geometry"/>
                </mxCell>
                <mxCell id="7" value="" style="rounded=0;whiteSpace=wrap;html=1;sketch=1;fontFamily=Times New Roman;" parent="1" vertex="1">
                    <mxGeometry x="391" y="134" width="214" height="344" as="geometry"/>
                </mxCell>
                <mxCell id="9" value="&lt;b&gt;用户数据区&lt;/b&gt;" style="text;html=1;strokeColor=none;fillColor=none;align=center;verticalAlign=middle;whiteSpace=wrap;rounded=0;sketch=1;fontFamily=Times New Roman;" parent="1" vertex="1">
                    <mxGeometry x="463" y="134" width="99" height="30" as="geometry"/>
                </mxCell>
                <mxCell id="10" value="1" style="rounded=0;whiteSpace=wrap;html=1;sketch=1;fontFamily=Times New Roman;fillColor=#ffe6cc;strokeColor=#d79b00;" parent="1" vertex="1">
                    <mxGeometry x="403" y="164" width="191" height="28" as="geometry"/>
                </mxCell>
                <mxCell id="11" value="2" style="rounded=0;whiteSpace=wrap;html=1;sketch=1;fontFamily=Times New Roman;fillColor=#ffe6cc;strokeColor=#d79b00;" parent="1" vertex="1">
                    <mxGeometry x="402" y="207" width="191" height="28" as="geometry"/>
                </mxCell>
                <mxCell id="12" value="3" style="rounded=0;whiteSpace=wrap;html=1;sketch=1;fontFamily=Times New Roman;fillColor=#ffe6cc;strokeColor=#d79b00;" parent="1" vertex="1">
                    <mxGeometry x="402" y="247" width="191" height="28" as="geometry"/>
                </mxCell>
                <mxCell id="13" value="7" style="rounded=0;whiteSpace=wrap;html=1;sketch=1;fontFamily=Times New Roman;fillColor=#ffe6cc;strokeColor=#d79b00;" parent="1" vertex="1">
                    <mxGeometry x="403" y="418" width="191" height="28" as="geometry"/>
                </mxCell>
                <mxCell id="14" value="6" style="rounded=0;whiteSpace=wrap;html=1;sketch=1;fontFamily=Times New Roman;fillColor=#ffe6cc;strokeColor=#d79b00;" parent="1" vertex="1">
                    <mxGeometry x="403" y="376" width="191" height="28" as="geometry"/>
                </mxCell>
                <mxCell id="15" value="5" style="rounded=0;whiteSpace=wrap;html=1;sketch=1;fontFamily=Times New Roman;fillColor=#ffe6cc;strokeColor=#d79b00;" parent="1" vertex="1">
                    <mxGeometry x="403" y="328" width="191" height="28" as="geometry"/>
                </mxCell>
                <mxCell id="16" value="4" style="rounded=0;whiteSpace=wrap;html=1;sketch=1;fontFamily=Times New Roman;fillColor=#ffe6cc;strokeColor=#d79b00;" parent="1" vertex="1">
                    <mxGeometry x="402" y="286" width="191" height="28" as="geometry"/>
                </mxCell>
                <mxCell id="17" value="" style="rounded=0;whiteSpace=wrap;html=1;sketch=1;fontFamily=Times New Roman;" parent="1" vertex="1">
                    <mxGeometry x="255" y="134" width="105" height="343" as="geometry"/>
                </mxCell>
                <mxCell id="31" style="edgeStyle=none;html=1;fontFamily=Times New Roman;dashed=1;sketch=1;" parent="1" source="18" target="10" edge="1">
                    <mxGeometry relative="1" as="geometry"/>
                </mxCell>
                <mxCell id="18" value="1" style="rounded=0;whiteSpace=wrap;html=1;sketch=1;fontFamily=Times New Roman;fillColor=#dae8fc;strokeColor=#6c8ebf;" parent="1" vertex="1">
                    <mxGeometry x="267.63" y="166" width="82" height="22" as="geometry"/>
                </mxCell>
                <mxCell id="35" style="edgeStyle=none;rounded=0;html=1;entryX=0;entryY=0.75;entryDx=0;entryDy=0;dashed=1;fontFamily=Times New Roman;sketch=1;" parent="1" source="19" target="12" edge="1">
                    <mxGeometry relative="1" as="geometry">
                        <Array as="points">
                            <mxPoint x="402" y="205"/>
                        </Array>
                    </mxGeometry>
                </mxCell>
                <mxCell id="19" value="3" style="rounded=0;whiteSpace=wrap;html=1;sketch=1;fontFamily=Times New Roman;fillColor=#dae8fc;strokeColor=#6c8ebf;" parent="1" vertex="1">
                    <mxGeometry x="267.63" y="194" width="82" height="22" as="geometry"/>
                </mxCell>
                <mxCell id="33" style="edgeStyle=none;rounded=0;html=1;entryX=0;entryY=0.75;entryDx=0;entryDy=0;dashed=1;fontFamily=Times New Roman;sketch=1;" parent="1" source="20" target="15" edge="1">
                    <mxGeometry relative="1" as="geometry">
                        <Array as="points">
                            <mxPoint x="403" y="236"/>
                        </Array>
                    </mxGeometry>
                </mxCell>
                <mxCell id="20" value="5" style="rounded=0;whiteSpace=wrap;html=1;sketch=1;fontFamily=Times New Roman;fillColor=#dae8fc;strokeColor=#6c8ebf;" parent="1" vertex="1">
                    <mxGeometry x="267.63" y="225" width="82" height="22" as="geometry"/>
                </mxCell>
                <mxCell id="34" style="edgeStyle=none;rounded=0;html=1;entryX=0;entryY=0.5;entryDx=0;entryDy=0;dashed=1;fontFamily=Times New Roman;sketch=1;" parent="1" source="21" target="13" edge="1">
                    <mxGeometry relative="1" as="geometry">
                        <Array as="points">
                            <mxPoint x="403" y="266"/>
                        </Array>
                    </mxGeometry>
                </mxCell>
                <mxCell id="21" value="7" style="rounded=0;whiteSpace=wrap;html=1;sketch=1;fontFamily=Times New Roman;fillColor=#dae8fc;strokeColor=#6c8ebf;" parent="1" vertex="1">
                    <mxGeometry x="266.13" y="255" width="82" height="22" as="geometry"/>
                </mxCell>
                <mxCell id="22" value="" style="rounded=0;whiteSpace=wrap;html=1;sketch=1;fontFamily=Times New Roman;fillColor=#dae8fc;strokeColor=#6c8ebf;" parent="1" vertex="1">
                    <mxGeometry x="267.63" y="285" width="82" height="22" as="geometry"/>
                </mxCell>
                <mxCell id="23" value="" style="rounded=0;whiteSpace=wrap;html=1;sketch=1;fontFamily=Times New Roman;fillColor=#dae8fc;strokeColor=#6c8ebf;" parent="1" vertex="1">
                    <mxGeometry x="267.63" y="318" width="82" height="22" as="geometry"/>
                </mxCell>
                <mxCell id="24" value="" style="rounded=0;whiteSpace=wrap;html=1;sketch=1;fontFamily=Times New Roman;fillColor=#dae8fc;strokeColor=#6c8ebf;" parent="1" vertex="1">
                    <mxGeometry x="266.13" y="349" width="82" height="22" as="geometry"/>
                </mxCell>
                <mxCell id="27" value="" style="rounded=0;whiteSpace=wrap;html=1;sketch=1;fontFamily=Times New Roman;fillColor=#dae8fc;strokeColor=#6c8ebf;" parent="1" vertex="1">
                    <mxGeometry x="266.88" y="380" width="82" height="22" as="geometry"/>
                </mxCell>
                <mxCell id="28" value="" style="rounded=0;whiteSpace=wrap;html=1;sketch=1;fontFamily=Times New Roman;fillColor=#dae8fc;strokeColor=#6c8ebf;" parent="1" vertex="1">
                    <mxGeometry x="266.88" y="413" width="82" height="22" as="geometry"/>
                </mxCell>
                <mxCell id="29" value="" style="rounded=0;whiteSpace=wrap;html=1;sketch=1;fontFamily=Times New Roman;fillColor=#dae8fc;strokeColor=#6c8ebf;" parent="1" vertex="1">
                    <mxGeometry x="265.38" y="444" width="82" height="22" as="geometry"/>
                </mxCell>
                <mxCell id="30" value="&lt;b&gt;页目录&lt;/b&gt;" style="text;html=1;strokeColor=none;fillColor=none;align=center;verticalAlign=middle;whiteSpace=wrap;rounded=0;sketch=1;fontFamily=Times New Roman;" parent="1" vertex="1">
                    <mxGeometry x="276.38" y="131" width="60" height="30" as="geometry"/>
                </mxCell>
                <mxCell id="36" value="" style="rounded=0;whiteSpace=wrap;html=1;sketch=1;fillColor=#f5f5f5;fontColor=#333333;strokeColor=#666666;shadow=0;" parent="1" vertex="1">
                    <mxGeometry x="766" y="21" width="417" height="502" as="geometry"/>
                </mxCell>
                <mxCell id="37" value="某二页 16kb" style="text;html=1;strokeColor=none;fillColor=none;align=center;verticalAlign=middle;whiteSpace=wrap;rounded=0;sketch=1;fontFamily=Times New Roman;" parent="1" vertex="1">
                    <mxGeometry x="915.5" y="17" width="118" height="30" as="geometry"/>
                </mxCell>
                <mxCell id="38" value="页头" style="rounded=0;whiteSpace=wrap;html=1;sketch=1;fontFamily=Times New Roman;" parent="1" vertex="1">
                    <mxGeometry x="803" y="62" width="353" height="63" as="geometry"/>
                </mxCell>
                <mxCell id="39" value="prev 指针" style="rounded=0;whiteSpace=wrap;html=1;sketch=1;fontFamily=Times New Roman;fillColor=#d5e8d4;strokeColor=#82b366;" parent="1" vertex="1">
                    <mxGeometry x="812" y="76" width="72" height="35" as="geometry"/>
                </mxCell>
                <mxCell id="40" value="next 指针" style="rounded=0;whiteSpace=wrap;html=1;sketch=1;fontFamily=Times New Roman;fillColor=#d5e8d4;strokeColor=#82b366;" parent="1" vertex="1">
                    <mxGeometry x="1073" y="76" width="72" height="35" as="geometry"/>
                </mxCell>
                <mxCell id="41" value="" style="rounded=0;whiteSpace=wrap;html=1;sketch=1;fontFamily=Times New Roman;" parent="1" vertex="1">
                    <mxGeometry x="942" y="138" width="214" height="344" as="geometry"/>
                </mxCell>
                <mxCell id="42" value="&lt;b&gt;用户数据区&lt;/b&gt;" style="text;html=1;strokeColor=none;fillColor=none;align=center;verticalAlign=middle;whiteSpace=wrap;rounded=0;sketch=1;fontFamily=Times New Roman;" parent="1" vertex="1">
                    <mxGeometry x="1014" y="138" width="99" height="30" as="geometry"/>
                </mxCell>
                <mxCell id="43" value="9" style="rounded=0;whiteSpace=wrap;html=1;sketch=1;fontFamily=Times New Roman;fillColor=#ffe6cc;strokeColor=#d79b00;" parent="1" vertex="1">
                    <mxGeometry x="954" y="168" width="191" height="28" as="geometry"/>
                </mxCell>
                <mxCell id="44" value="10" style="rounded=0;whiteSpace=wrap;html=1;sketch=1;fontFamily=Times New Roman;fillColor=#ffe6cc;strokeColor=#d79b00;" parent="1" vertex="1">
                    <mxGeometry x="953" y="211" width="191" height="28" as="geometry"/>
                </mxCell>
                <mxCell id="45" value="11" style="rounded=0;whiteSpace=wrap;html=1;sketch=1;fontFamily=Times New Roman;fillColor=#ffe6cc;strokeColor=#d79b00;" parent="1" vertex="1">
                    <mxGeometry x="953" y="251" width="191" height="28" as="geometry"/>
                </mxCell>
                <mxCell id="46" value="15" style="rounded=0;whiteSpace=wrap;html=1;sketch=1;fontFamily=Times New Roman;fillColor=#ffe6cc;strokeColor=#d79b00;" parent="1" vertex="1">
                    <mxGeometry x="954" y="422" width="191" height="28" as="geometry"/>
                </mxCell>
                <mxCell id="47" value="14" style="rounded=0;whiteSpace=wrap;html=1;sketch=1;fontFamily=Times New Roman;fillColor=#ffe6cc;strokeColor=#d79b00;" parent="1" vertex="1">
                    <mxGeometry x="954" y="380" width="191" height="28" as="geometry"/>
                </mxCell>
                <mxCell id="48" value="13" style="rounded=0;whiteSpace=wrap;html=1;sketch=1;fontFamily=Times New Roman;fillColor=#ffe6cc;strokeColor=#d79b00;" parent="1" vertex="1">
                    <mxGeometry x="954" y="332" width="191" height="28" as="geometry"/>
                </mxCell>
                <mxCell id="49" value="12" style="rounded=0;whiteSpace=wrap;html=1;sketch=1;fontFamily=Times New Roman;fillColor=#ffe6cc;strokeColor=#d79b00;" parent="1" vertex="1">
                    <mxGeometry x="953" y="290" width="191" height="28" as="geometry"/>
                </mxCell>
                <mxCell id="50" value="" style="rounded=0;whiteSpace=wrap;html=1;sketch=1;fontFamily=Times New Roman;" parent="1" vertex="1">
                    <mxGeometry x="806" y="138" width="105" height="343" as="geometry"/>
                </mxCell>
                <mxCell id="51" style="edgeStyle=none;html=1;fontFamily=Times New Roman;dashed=1;sketch=1;" parent="1" source="52" target="43" edge="1">
                    <mxGeometry relative="1" as="geometry"/>
                </mxCell>
                <mxCell id="52" value="9" style="rounded=0;whiteSpace=wrap;html=1;sketch=1;fontFamily=Times New Roman;fillColor=#dae8fc;strokeColor=#6c8ebf;" parent="1" vertex="1">
                    <mxGeometry x="818.63" y="170" width="82" height="22" as="geometry"/>
                </mxCell>
                <mxCell id="53" style="edgeStyle=none;rounded=0;html=1;entryX=0;entryY=0.75;entryDx=0;entryDy=0;dashed=1;fontFamily=Times New Roman;sketch=1;" parent="1" source="54" target="45" edge="1">
                    <mxGeometry relative="1" as="geometry">
                        <Array as="points">
                            <mxPoint x="953" y="209"/>
                        </Array>
                    </mxGeometry>
                </mxCell>
                <mxCell id="54" value="11" style="rounded=0;whiteSpace=wrap;html=1;sketch=1;fontFamily=Times New Roman;fillColor=#dae8fc;strokeColor=#6c8ebf;" parent="1" vertex="1">
                    <mxGeometry x="818.63" y="198" width="82" height="22" as="geometry"/>
                </mxCell>
                <mxCell id="55" style="edgeStyle=none;rounded=0;html=1;entryX=0;entryY=0.75;entryDx=0;entryDy=0;dashed=1;fontFamily=Times New Roman;sketch=1;" parent="1" source="56" target="48" edge="1">
                    <mxGeometry relative="1" as="geometry">
                        <Array as="points">
                            <mxPoint x="954" y="240"/>
                        </Array>
                    </mxGeometry>
                </mxCell>
                <mxCell id="56" value="13" style="rounded=0;whiteSpace=wrap;html=1;sketch=1;fontFamily=Times New Roman;fillColor=#dae8fc;strokeColor=#6c8ebf;" parent="1" vertex="1">
                    <mxGeometry x="818.63" y="229" width="82" height="22" as="geometry"/>
                </mxCell>
                <mxCell id="57" style="edgeStyle=none;rounded=0;html=1;entryX=0;entryY=0.5;entryDx=0;entryDy=0;dashed=1;fontFamily=Times New Roman;sketch=1;" parent="1" source="58" target="46" edge="1">
                    <mxGeometry relative="1" as="geometry">
                        <Array as="points">
                            <mxPoint x="954" y="270"/>
                        </Array>
                    </mxGeometry>
                </mxCell>
                <mxCell id="58" value="15" style="rounded=0;whiteSpace=wrap;html=1;sketch=1;fontFamily=Times New Roman;fillColor=#dae8fc;strokeColor=#6c8ebf;" parent="1" vertex="1">
                    <mxGeometry x="817.13" y="259" width="82" height="22" as="geometry"/>
                </mxCell>
                <mxCell id="59" value="" style="rounded=0;whiteSpace=wrap;html=1;sketch=1;fontFamily=Times New Roman;fillColor=#dae8fc;strokeColor=#6c8ebf;" parent="1" vertex="1">
                    <mxGeometry x="818.63" y="289" width="82" height="22" as="geometry"/>
                </mxCell>
                <mxCell id="60" value="" style="rounded=0;whiteSpace=wrap;html=1;sketch=1;fontFamily=Times New Roman;fillColor=#dae8fc;strokeColor=#6c8ebf;" parent="1" vertex="1">
                    <mxGeometry x="818.63" y="322" width="82" height="22" as="geometry"/>
                </mxCell>
                <mxCell id="61" value="" style="rounded=0;whiteSpace=wrap;html=1;sketch=1;fontFamily=Times New Roman;fillColor=#dae8fc;strokeColor=#6c8ebf;" parent="1" vertex="1">
                    <mxGeometry x="817.13" y="353" width="82" height="22" as="geometry"/>
                </mxCell>
                <mxCell id="62" value="" style="rounded=0;whiteSpace=wrap;html=1;sketch=1;fontFamily=Times New Roman;fillColor=#dae8fc;strokeColor=#6c8ebf;" parent="1" vertex="1">
                    <mxGeometry x="817.88" y="384" width="82" height="22" as="geometry"/>
                </mxCell>
                <mxCell id="63" value="" style="rounded=0;whiteSpace=wrap;html=1;sketch=1;fontFamily=Times New Roman;fillColor=#dae8fc;strokeColor=#6c8ebf;" parent="1" vertex="1">
                    <mxGeometry x="817.88" y="417" width="82" height="22" as="geometry"/>
                </mxCell>
                <mxCell id="64" value="" style="rounded=0;whiteSpace=wrap;html=1;sketch=1;fontFamily=Times New Roman;fillColor=#dae8fc;strokeColor=#6c8ebf;" parent="1" vertex="1">
                    <mxGeometry x="816.38" y="448" width="82" height="22" as="geometry"/>
                </mxCell>
                <mxCell id="65" value="&lt;b&gt;页目录&lt;/b&gt;" style="text;html=1;strokeColor=none;fillColor=none;align=center;verticalAlign=middle;whiteSpace=wrap;rounded=0;sketch=1;fontFamily=Times New Roman;" parent="1" vertex="1">
                    <mxGeometry x="827.38" y="135" width="60" height="30" as="geometry"/>
                </mxCell>
                <mxCell id="66" value="" style="rounded=0;whiteSpace=wrap;html=1;shadow=0;sketch=1;fontFamily=Times New Roman;" parent="1" vertex="1">
                    <mxGeometry x="547" y="-176" width="309" height="110" as="geometry"/>
                </mxCell>
                <mxCell id="73" style="edgeStyle=none;rounded=0;html=1;exitX=0.5;exitY=1;exitDx=0;exitDy=0;entryX=0.5;entryY=0;entryDx=0;entryDy=0;fontFamily=Times New Roman;sketch=1;" parent="1" source="67" target="3" edge="1">
                    <mxGeometry relative="1" as="geometry">
                        <Array as="points">
                            <mxPoint x="589" y="-31"/>
                            <mxPoint x="424" y="-31"/>
                        </Array>
                    </mxGeometry>
                </mxCell>
                <mxCell id="67" value="" style="rounded=0;whiteSpace=wrap;html=1;shadow=0;sketch=1;fontFamily=Times New Roman;" parent="1" vertex="1">
                    <mxGeometry x="562" y="-147" width="53" height="60" as="geometry"/>
                </mxCell>
                <mxCell id="74" style="edgeStyle=none;rounded=0;html=1;exitX=0.5;exitY=1;exitDx=0;exitDy=0;entryX=0.5;entryY=0;entryDx=0;entryDy=0;fontFamily=Times New Roman;sketch=1;" parent="1" source="68" target="37" edge="1">
                    <mxGeometry relative="1" as="geometry">
                        <Array as="points">
                            <mxPoint x="642" y="-32"/>
                            <mxPoint x="975" y="-32"/>
                        </Array>
                    </mxGeometry>
                </mxCell>
                <mxCell id="68" value="" style="rounded=0;whiteSpace=wrap;html=1;shadow=0;sketch=1;fontFamily=Times New Roman;" parent="1" vertex="1">
                    <mxGeometry x="615" y="-147" width="53" height="60" as="geometry"/>
                </mxCell>
                <mxCell id="69" value="" style="rounded=0;whiteSpace=wrap;html=1;shadow=0;sketch=1;fontFamily=Times New Roman;" parent="1" vertex="1">
                    <mxGeometry x="668" y="-147" width="53" height="60" as="geometry"/>
                </mxCell>
                <mxCell id="70" value="" style="rounded=0;whiteSpace=wrap;html=1;shadow=0;sketch=1;fontFamily=Times New Roman;" parent="1" vertex="1">
                    <mxGeometry x="721" y="-147" width="53" height="60" as="geometry"/>
                </mxCell>
                <mxCell id="72" value="" style="rounded=0;whiteSpace=wrap;html=1;shadow=0;sketch=1;fontFamily=Times New Roman;" parent="1" vertex="1">
                    <mxGeometry x="774" y="-147" width="53" height="60" as="geometry"/>
                </mxCell>
                <mxCell id="75" value="&lt;b&gt;索引页&lt;/b&gt;" style="text;html=1;strokeColor=none;fillColor=none;align=center;verticalAlign=middle;whiteSpace=wrap;rounded=0;shadow=0;sketch=1;fontFamily=Times New Roman;" vertex="1" parent="1">
                    <mxGeometry x="866" y="-156" width="60" height="30" as="geometry"/>
                </mxCell>
                <mxCell id="76" value="" style="endArrow=none;html=1;rounded=0;sketch=1;fontFamily=Times New Roman;" edge="1" parent="1">
                    <mxGeometry width="50" height="50" relative="1" as="geometry">
                        <mxPoint x="560" y="-112" as="sourcePoint"/>
                        <mxPoint x="824" y="-112" as="targetPoint"/>
                        <Array as="points">
                            <mxPoint x="808" y="-112"/>
                        </Array>
                    </mxGeometry>
                </mxCell>
                <mxCell id="77" value="1" style="text;html=1;strokeColor=none;fillColor=none;align=center;verticalAlign=middle;whiteSpace=wrap;rounded=0;shadow=0;sketch=1;fontFamily=Times New Roman;" vertex="1" parent="1">
                    <mxGeometry x="555" y="-147" width="60" height="30" as="geometry"/>
                </mxCell>
                <mxCell id="78" value="9" style="text;html=1;strokeColor=none;fillColor=none;align=center;verticalAlign=middle;whiteSpace=wrap;rounded=0;shadow=0;sketch=1;fontFamily=Times New Roman;" vertex="1" parent="1">
                    <mxGeometry x="615" y="-149" width="60" height="30" as="geometry"/>
                </mxCell>
                <mxCell id="82" value="页地址" style="text;html=1;strokeColor=none;fillColor=none;align=center;verticalAlign=middle;whiteSpace=wrap;rounded=0;shadow=0;sketch=1;fontFamily=Times New Roman;" vertex="1" parent="1">
                    <mxGeometry x="562" y="-114" width="60" height="30" as="geometry"/>
                </mxCell>
                <mxCell id="83" value="页地址" style="text;html=1;strokeColor=none;fillColor=none;align=center;verticalAlign=middle;whiteSpace=wrap;rounded=0;shadow=0;sketch=1;fontFamily=Times New Roman;" vertex="1" parent="1">
                    <mxGeometry x="626" y="-105" width="60" height="30" as="geometry"/>
                </mxCell>
                <mxCell id="84" value="&lt;b&gt;主键索引就是聚簇索引（索引页 + 数据页）&lt;/b&gt;" style="text;html=1;strokeColor=none;fillColor=none;align=center;verticalAlign=middle;whiteSpace=wrap;rounded=0;shadow=0;sketch=1;fontFamily=Times New Roman;" vertex="1" parent="1">
                    <mxGeometry x="933" y="-269" width="322.5" height="30" as="geometry"/>
                </mxCell>
            </root>
        </mxGraphModel>
    </diagram>
</mxfile>